<svg xmlns="http://www.w3.org/2000/svg" width="25" height="25" viewBox="0 0 24 24">
  <rect width="24" height="24" fill="#9cdcba" rx="6" ry="6"/>
  <g transform="translate(2, 2) scale(0.833)" fill="none" stroke="#3d3d3d" stroke-width="2" stroke-linecap="round" stroke-linejoin="round">
    <path d="M17 21a1 1 0 0 0 1-1v-5.35c0-.457.316-.844.727-1.041a4 4 0 0 0-2.134-7.589 5 5 0 0 0-9.186 0 4 4 0 0 0-2.134 7.588c.411.198.727.585.727 1.041V20a1 1 0 0 0 1 1Z"/>
    <path d="M6 17h12"/>
  </g>
</svg>
