<?xml version="1.0" standalone="no"?><svg xmlns:xlink="http://www.w3.org/1999/xlink" xmlns="http://www.w3.org/2000/svg" viewBox="0 0 1000 1000.0000000000001" preserveAspectRatio="xMaxYMax slice"><g transform="scale(2.175805047867711)"><rect x="0" y="0" width="459.6" height="459.6" fill="#ffffff"/><rect x="0" y="0" width="65.66" height="65.66" fill="#fffffe"/><polygon points="0,0 65.66,0 0,65.66" fill="#ffffff"/><rect x="65.66" y="0" width="65.66" height="65.66" fill="#fbf8f3"/><polygon points="65.66,0 131.32,65.66 65.66,65.66" fill="#ffffff"/><rect x="131.31" y="0" width="65.66" height="65.66" fill="#f8f0e8"/><path d="M 131.31 65.66 A 65.66 65.66 0 0 1  196.97 0 L 131.31 65.66 A 65.66 65.66 0 0 0 196.97 0" fill="#ffffff"/><rect x="196.97" y="0" width="65.66" height="65.66" fill="#ffffff"/><polygon points="196.97,0 262.63,0 196.97,65.66" fill="#fefdfc"/><rect x="262.63" y="0" width="65.66" height="65.66" fill="#ffffff"/><path d="M 262.63 65.66 A 65.66 65.66 0 0 0 328.28999999999996 0 L 262.63 0L262.63 65.66" fill="#ffffff"/><rect x="328.29" y="0" width="65.66" height="65.66" fill="#ffffff"/><rect x="328.29" y="0" width="65.66" height="65.66" fill="#f2e5d5"/><rect x="393.94" y="0" width="65.66" height="65.66" fill="#f2e4d4"/><rect x="393.94" y="0" width="65.66" height="65.66" fill="#ffffff"/><rect x="0" y="65.66" width="65.66" height="65.66" fill="#faf4ed"/><rect x="0" y="65.66" width="65.66" height="65.66" fill="#f2e4d5"/><rect x="65.66" y="65.66" width="65.66" height="65.66" fill="#f7eee3"/><polygon points="65.66,65.66 131.32,65.66 65.66,131.32" fill="#fdfaf7"/><rect x="131.31" y="65.66" width="65.66" height="65.66" fill="#f7eee5"/><path d="M 131.31 65.66 A 65.66 65.66 0 0 1 196.97 131.32 L 131.31 131.32L131.31 65.66" fill="#f9f2ea"/><rect x="196.97" y="65.66" width="65.66" height="65.66" fill="#ffffff"/><polygon points="196.97,65.66 262.63,65.66 196.97,131.32" fill="#fbf7f1"/><rect x="262.63" y="65.66" width="65.66" height="65.66" fill="#fdfcfa"/><rect x="262.63" y="65.66" width="65.66" height="65.66" fill="#ffffff"/><rect x="328.29" y="65.66" width="65.66" height="65.66" fill="#ffffff"/><polygon points="328.29,65.66 393.95000000000005,65.66 393.95000000000005,131.32" fill="#ffffff"/><rect x="393.94" y="65.66" width="65.66" height="65.66" fill="#f6ede2"/><path d="M 393.94 65.66 A 65.66 65.66 0 0 1 459.6 131.32 L 393.94 131.32L393.94 65.66" fill="#f6ece0"/><rect x="0" y="131.31" width="65.66" height="65.66" fill="#fdfbf9"/><polygon points="0,131.31 65.66,196.97 0,196.97" fill="#ffffff"/><rect x="65.66" y="131.31" width="65.66" height="65.66" fill="#fefcfa"/><polygon points="65.66,131.31 131.32,196.97 65.66,196.97" fill="#f8f1e9"/><rect x="131.31" y="131.31" width="65.66" height="65.66" fill="#f5eadd"/><polygon points="131.31,131.31 196.97,196.97 131.31,196.97" fill="#ffffff"/><rect x="196.97" y="131.31" width="65.66" height="65.66" fill="#ffffff"/><rect x="196.97" y="131.31" width="65.66" height="65.66" fill="#ffffff"/><rect x="262.63" y="131.31" width="65.66" height="65.66" fill="#ffffff"/><path d="M 262.63 196.97 A 65.66 65.66 0 0 1  328.28999999999996 131.31 L 262.63 196.97 A 65.66 65.66 0 0 0 328.28999999999996 131.31" fill="#ffffff"/><rect x="328.29" y="131.31" width="65.66" height="65.66" fill="#ffffff"/><path d="M 328.29 196.97 A 65.66 65.66 0 0 1  393.95000000000005 131.31 L 328.29 196.97 A 65.66 65.66 0 0 0 393.95000000000005 131.31" fill="#ffffff"/><rect x="393.94" y="131.31" width="65.66" height="65.66" fill="#f5ebe0"/><polygon points="393.94,131.31 459.6,131.31 393.94,196.97" fill="#ffffff"/><rect x="0" y="196.97" width="65.66" height="65.66" fill="#fcf9f6"/><rect x="0" y="196.97" width="65.66" height="65.66" fill="#ffffff"/><rect x="65.66" y="196.97" width="65.66" height="65.66" fill="#f5eade"/><path d="M 65.66 262.63 A 65.66 65.66 0 0 1  131.32 196.97 L 65.66 262.63 A 65.66 65.66 0 0 0 131.32 196.97" fill="#ffffff"/><rect x="131.31" y="196.97" width="65.66" height="65.66" fill="#ffffff"/><rect x="131.31" y="196.97" width="65.66" height="65.66" fill="#fefefd"/><rect x="196.97" y="196.97" width="65.66" height="65.66" fill="#ffffff"/><polygon points="262.63,196.97 262.63,262.63 196.97,262.63" fill="#fefdfc"/><rect x="262.63" y="196.97" width="65.66" height="65.66" fill="#f4e9dc"/><path d="M 262.63 262.63 A 65.66 65.66 0 0 1  328.28999999999996 196.97 L 328.28999999999996 262.63L262.63 262.63" fill="#fbf7f2"/><rect x="328.29" y="196.97" width="65.66" height="65.66" fill="#f8f0e8"/><rect x="328.29" y="196.97" width="65.66" height="65.66" fill="#f2e4d4"/><rect x="393.94" y="196.97" width="65.66" height="65.66" fill="#faf4ed"/><path d="M 393.94 196.97 A 65.66 65.66 0 0 0 459.6 262.63 L 459.6 196.97L393.94 196.97" fill="#f8f1e9"/><rect x="0" y="262.63" width="65.66" height="65.66" fill="#ffffff"/><rect x="0" y="262.63" width="65.66" height="65.66" fill="#f6ede2"/><rect x="65.66" y="262.63" width="65.66" height="65.66" fill="#ffffff"/><path d="M 65.66 328.28999999999996 A 65.66 65.66 0 0 1  131.32 262.63 L 65.66 328.28999999999996 A 65.66 65.66 0 0 0 131.32 262.63" fill="#ffffff"/><rect x="131.31" y="262.63" width="65.66" height="65.66" fill="#faf5ef"/><polygon points="131.31,262.63 196.97,262.63 131.31,328.28999999999996" fill="#ffffff"/><rect x="196.97" y="262.63" width="65.66" height="65.66" fill="#ffffff"/><polygon points="196.97,262.63 262.63,262.63 196.97,328.28999999999996" fill="#f7efe5"/><rect x="262.63" y="262.63" width="65.66" height="65.66" fill="#ffffff"/><rect x="262.63" y="262.63" width="65.66" height="65.66" fill="#f9f2ea"/><rect x="328.29" y="262.63" width="65.66" height="65.66" fill="#ffffff"/><rect x="328.29" y="262.63" width="65.66" height="65.66" fill="#ffffff"/><rect x="393.94" y="262.63" width="65.66" height="65.66" fill="#fefefd"/><rect x="393.94" y="262.63" width="65.66" height="65.66" fill="#ffffff"/><rect x="0" y="328.29" width="65.66" height="65.66" fill="#fefefd"/><path d="M 0 393.95000000000005 A 65.66 65.66 0 0 0 65.66 328.29 L 0 328.29L0 393.95000000000005" fill="#ffffff"/><rect x="65.66" y="328.29" width="65.66" height="65.66" fill="#fdfbf9"/><polygon points="65.66,328.29 131.32,393.95000000000005 65.66,393.95000000000005" fill="#ffffff"/><rect x="131.31" y="328.29" width="65.66" height="65.66" fill="#ffffff"/><polygon points="131.31,328.29 196.97,328.29 196.97,393.95000000000005" fill="#ffffff"/><rect x="196.97" y="328.29" width="65.66" height="65.66" fill="#f8efe6"/><rect x="196.97" y="328.29" width="65.66" height="65.66" fill="#ffffff"/><rect x="262.63" y="328.29" width="65.66" height="65.66" fill="#fdfaf7"/><polygon points="328.28999999999996,328.29 328.28999999999996,393.95000000000005 262.63,393.95000000000005" fill="#fdfaf8"/><rect x="328.29" y="328.29" width="65.66" height="65.66" fill="#fdfbf8"/><path d="M 328.29 328.29 A 65.66 65.66 0 0 0 393.95000000000005 393.95000000000005 L 393.95000000000005 328.29L328.29 328.29" fill="#f3e7d9"/><rect x="393.94" y="328.29" width="65.66" height="65.66" fill="#f8f1e9"/><path d="M 393.94 328.29 A 65.66 65.66 0 0 1 459.6 393.95000000000005 L 393.94 393.95000000000005L393.94 328.29" fill="#ffffff"/><rect x="0" y="393.94" width="65.66" height="65.66" fill="#ffffff"/><polygon points="0,393.94 65.66,459.6 0,459.6" fill="#ffffff"/><rect x="65.66" y="393.94" width="65.66" height="65.66" fill="#ffffff"/><path d="M 65.66 393.94 A 65.66 65.66 0 0 1  131.32 459.6 L 65.66 393.94 A 65.66 65.66 0 0 0 131.32 459.6" fill="#f3e5d6"/><rect x="131.31" y="393.94" width="65.66" height="65.66" fill="#ffffff"/><polygon points="196.97,393.94 196.97,459.6 131.31,459.6" fill="#ffffff"/><rect x="196.97" y="393.94" width="65.66" height="65.66" fill="#ffffff"/><polygon points="196.97,393.94 262.63,393.94 196.97,459.6" fill="#f5eade"/><rect x="262.63" y="393.94" width="65.66" height="65.66" fill="#f4e8db"/><path d="M 262.63 459.6 A 65.66 65.66 0 0 0 328.28999999999996 393.94 L 262.63 393.94L262.63 459.6" fill="#ffffff"/><rect x="328.29" y="393.94" width="65.66" height="65.66" fill="#ffffff"/><path d="M 328.29 393.94 A 65.66 65.66 0 0 0 393.95000000000005 459.6 L 393.95000000000005 393.94L328.29 393.94" fill="#ffffff"/><rect x="393.94" y="393.94" width="65.66" height="65.66" fill="#ffffff"/><rect x="393.94" y="393.94" width="65.66" height="65.66" fill="#f7eee4"/></g></svg>